<svg xmlns="http://www.w3.org/2000/svg" viewBox="0 0 139.75 28.85"><title>Element 30</title><g id="Ebene_2" data-name="Ebene 2"><g id="圖層_1" data-name="圖層 1"><path d="M68.21,0H43.57c-5.71,0-8.25,3.58-8.83,7V0H21.06a3.93,3.93,0,0,0-3.75,1.91L13.56,7.39H68.21Z"/><polygon points="0 28.85 9.81 28.85 22.1 9 13.33 8.14 0 28.85"/><rect x="69.65" width="8.08" height="7.39"/><path d="M129,11.54,103.74,10c0,3.87,2.54,6.46,6.87,6.81l18,1.39c1.39.11,2.25.46,2.25,1.61s-1,1.5-3,1.5H103.34v7.5h25c7.91,0,11.37-2.77,11.37-9.06,0-5.65-3.12-7.79-10.73-8.25"/><path d="M103.41,10l-8-.46v8.48c0,2.66-1.33,3.47-6,3.47H83.16c-3.81,0-5.43-1.1-5.43-3.47V8.77l-8.08-.58V18.76h-.17c-.46-3.06-1.62-6.64-9.29-7.16L34.91,9.93c0,3.86,2.77,6.17,7.1,6.63l17.6,1.79C61,18.47,62,18.87,62,20s-1,1.38-2.66,1.38H34.62V9.87l-8.07-.52v19.5H59.44c7.33,0,9.69-3.8,10-7h.17c.93,5,5.31,7,12.76,7H90.6c8.71,0,12.81-2.65,12.81-8.88Z"/><path d="M139.19,7.39V0H112.07c-5.65,0-8.2,3.5-8.64,6.87,0,0,0,.07,0,.11V0h-8V7.39h43.74Z"/></g></g></svg>